<?xml version="1.0" standalone="no"?>
<!DOCTYPE svg PUBLIC "-//W3C//DTD SVG 20010904//EN"
 "http://www.w3.org/TR/2001/REC-SVG-20010904/DTD/svg10.dtd">
<svg version="1.0" xmlns="http://www.w3.org/2000/svg"
 width="1080.000000pt" height="1080.000000pt" viewBox="0 0 1080.000000 1080.000000"
 preserveAspectRatio="xMidYMid meet">
<metadata>
Created by potrace 1.14, written by Peter Selinger 2001-2017
</metadata>
<g transform="translate(0.000000,1080.000000) scale(0.100000,-0.100000)"
fill="#000000" stroke="none">
<path d="M3375 9779 c-96 -21 -100 -22 -130 -33 -306 -113 -517 -327 -625
-632 -54 -154 -51 48 -48 -3754 2 -1928 7 -3518 11 -3535 59 -228 139 -377
282 -520 151 -152 348 -253 553 -283 62 -9 3902 -9 3964 0 125 18 257 67 370
136 83 51 97 62 178 142 145 143 239 315 287 530 4 19 8 1617 10 3550 2 3735
4 3566 -42 3720 -20 63 -67 167 -104 225 -141 222 -359 382 -606 444 -22 6
-53 14 -70 18 -16 4 -910 8 -1985 10 -1914 2 -1957 1 -2045 -18z"/>
</g>
</svg>
